<svg width="24" height="24" viewBox="0 0 24 24" fill="none" xmlns="http://www.w3.org/2000/svg">
  <circle cx="12" cy="12" r="12" fill="#229ED9"/>
  <path d="M5.45 11.71L11.46 9.32C12.19 9.02 14.8 7.92 14.8 7.92C14.8 7.92 16.44 7.25 16.31 8.67C16.26 9.18 15.96 10.7 15.66 12.37L15.01 16.83C15.01 16.83 14.91 17.64 14.21 17.79C13.51 17.94 12.44 17.27 12.24 17.12C12.09 17.02 9.64 15.48 8.79 14.73C8.54 14.53 8.24 14.13 8.84 13.58L12.49 10.25C12.94 9.85 13.39 8.92 11.96 9.82L7.31 12.83C7.31 12.83 6.61 13.23 5.31 12.88L3.46 12.33C3.46 12.33 2.46 11.66 5.45 11.71Z" fill="white"/>
</svg> 